<svg xmlns="http://www.w3.org/2000/svg" width="16" height="12" viewBox="0 0 20 20"><defs><style>.a{fill:#373841;}</style></defs><g transform="translate(0)"><path class="a" d="M19.071,18.967,5.4,19.19a1.058,1.058,0,0,1-.565-.16,1.113,1.113,0,0,1-.454-1.192l.643-3.022L4.252,6.282,1.611,5.111a1.137,1.137,0,0,1-.595-1.4,1,1,0,0,1,1.351-.617L5.613,4.526a1.094,1.094,0,0,1,.625.894l.141,1.511L20.19,8.485a.878.878,0,0,1,.746,1.043c-.212,1.309-1.36,3.607-1.592,5.033a1.356,1.356,0,0,1-1.331,1.171l-11.089-.01-.21,1.3L19.03,16.8a1.086,1.086,0,0,1,.04,2.171Z" transform="translate(-0.95 -3.004)"/><circle class="a" cx="1.576" cy="1.576" r="1.576" transform="translate(4.509 16.848)"/><circle class="a" cx="1.576" cy="1.576" r="1.576" transform="translate(15.289 16.848)"/></g></svg>
