<svg xmlns="http://www.w3.org/2000/svg" width="16" height="21" viewBox="0 0 16.004 21"><defs><style>.a{fill:#000;}</style></defs><path class="a" d="M14.5,15.306,3.561,15.47a.843.843,0,0,1-.448-.119.8.8,0,0,1-.368-.888l.512-2.24-.616-6.39L.529,4.959A.824.824,0,0,1,.057,3.914a.813.813,0,0,1,1-.485h.08l2.592,1.1a.811.811,0,0,1,.5.664l.112,1.127L15.394,7.482a.716.716,0,0,1,.472.254A.625.625,0,0,1,16,8.229a.091.091,0,0,0,0,.045c-.176.978-1.088,2.695-1.28,3.733a1.05,1.05,0,0,1-1.064.873H4.8l-.168.97,9.856-.164a.81.81,0,0,1,0,1.62Z" transform="translate(-0.006 1.71)"/><circle class="a" cx="1.58" cy="1.58" r="1.58" transform="translate(3.427 17.84)"/><circle class="a" cx="1.58" cy="1.58" r="1.58" transform="translate(11.275 17.84)"/><path class="a" d="M15.35,3.34a.8.8,0,0,0-1.14,0L12.78,4.77V1.1a.81.81,0,0,0-1.62,0V4.77L9.73,3.34A.81.81,0,0,0,8.59,4.48L11.4,7.29a.8.8,0,0,0,1.14,0l2.81-2.81a.8.8,0,0,0,0-1.14Z" transform="translate(-2.627 -0.29)"/></svg>
