<svg xmlns="http://www.w3.org/2000/svg" width="34" height="17.882" viewBox="0 0 34 17.882"><defs><style>.a{fill:#eee;}.b{fill:#bebebe;}</style></defs><g transform="translate(0)"><rect class="a" width="10" height="5" rx="2.5" transform="translate(24)"/><rect class="a" width="10" height="5" rx="2.5" transform="translate(0)"/><rect class="a" width="10" height="5" rx="2.5" transform="translate(12)"/><path class="b" d="M4.55,16.465s-2.369-4.218-3.366-6.045C-.141,7.987-.36,6.962.557,6.454A1.34,1.34,0,0,1,2.4,7.111l1.13,1.8V1.861S3.461,0,4.787,0C6.2,0,6.077,1.861,6.077,1.861V5.285a2.058,2.058,0,0,1,1.614-.294A1.658,1.658,0,0,1,8.93,6.028,1.941,1.941,0,0,1,11.581,7a1.631,1.631,0,0,1,2.04,1.712c0,2.115-2.547,7.757-2.547,7.757Z" transform="translate(15.216 1.417)"/><g transform="translate(10.988 17.77) rotate(180)"><g transform="translate(2.664)"><rect class="b" width="2.454" height="7.361" rx="1.227" transform="translate(5.205 3.47) rotate(45)"/><rect class="b" width="2.454" height="7.361" rx="1.227" transform="translate(6.94 5.205) rotate(135)"/></g><rect class="b" width="2.454" height="7.361" rx="1.227" transform="translate(7.361 3.867) rotate(90)"/></g></g></svg>